<?xml version="1.0" encoding="UTF-8"?>
<svg width="113px" height="35px" viewBox="0 0 113 35" version="1.1" xmlns="http://www.w3.org/2000/svg" xmlns:xlink="http://www.w3.org/1999/xlink">
    <!-- Generator: Sketch 55.2 (78181) - https://sketchapp.com -->
    <title>Group 3</title>
    <desc>Created with Sketch.</desc>
    <defs>
        <path d="M16.2585956,0.104651163 C17.2186888,0.104651163 30.7579859,7.76617257 31.2509575,8.60465116 C31.743929,9.44312975 31.743929,24.7661726 31.2509575,25.6046512 C30.7579859,26.4431298 16.8300678,34.1046512 16.2585956,34.1046512 C15.6871234,34.1046512 1.83794473,26.577055 1.26623377,25.6046512 C0.694522805,24.6322474 0.694522805,9.57705495 1.26623377,8.60465116 C1.83794473,7.63224737 15.2985024,0.104651163 16.2585956,0.104651163 Z" id="path-1"></path>
    </defs>
    <g id="Page-2" stroke="none" stroke-width="1" fill="none" fill-rule="evenodd">
        <g id="Group-4">
            <g id="Group-3">
                <text id="Component-Developmen" font-family="LucidaGrande-Bold, Lucida Grande" font-size="11" font-weight="bold" letter-spacing="-0.66" fill="#434343">
                    <tspan x="44.3651697" y="14.1046512">Component</tspan>
                    <tspan x="103.619506" y="14.1046512" font-family="LucidaGrande, Lucida Grande" font-weight="normal"> </tspan>
                    <tspan x="34.4404627" y="27.1046512" font-family="LucidaGrande, Lucida Grande" font-weight="normal">Development Kit</tspan>
                </text>
                <g id="Group-2">
                    <mask id="mask-2" fill="white">
                        <use xlink:href="#path-1"></use>
                    </mask>
                    <use id="Mask" fill="#FFFFFF" fill-rule="nonzero" xlink:href="#path-1"></use>
                    <g id="Group" mask="url(#mask-2)" fill-rule="nonzero">
                        <g transform="translate(-40.000000, -8.000000)" id="Rectangle">
                            <path d="M18.9220779,1.0658141e-14 C34.4369307,5.19513081 46.8839004,7.79269622 56.262987,7.79269622 C65.6420736,7.79269622 78.0890433,5.19513081 93.6038961,1.0658141e-14 L93.6038961,23.3255814 C75.2224281,26.2578204 64.312982,24.9708775 60.875558,19.4647529 C58.3491021,15.4178325 50.9511414,21.413541 46.8444095,23.3255814 C41.9136508,25.6212779 32.606207,25.6212779 18.9220779,23.3255814 L18.9220779,1.0658141e-14 Z" fill="#FA44BF"></path>
                            <path d="M1.47907366,42.8253775 C8.31169677,29.6191179 17.7997328,23.5925384 29.9431818,24.7456392 C33.5933067,25.0922427 33.6402384,25.5310558 37.3409091,24.7456392 C39.6146832,24.2630619 44.216899,17.3136324 54.4599483,16.1297693 C68.8685319,14.4644652 80.5525061,23.3630013 89.5118709,42.8253775 L74.6818182,48.4830825 C58.511172,40.3892103 46.0642023,36.3422743 37.3409091,36.3422743 C28.6176159,36.3422743 16.1706462,40.3892103 0,48.4830825 L1.47907366,42.8253775 Z" fill="#BD10E0"></path>
                            <path d="M14.8961039,28.2380206 C23.257339,21.0187022 32.7317455,19.4742343 43.3193233,23.6046169 C59.2006899,29.8001908 56.3258929,17.7608669 66.3751015,23.6046169 C73.0745739,27.5004502 80.8088474,29.0449181 89.5779221,28.2380206 L89.5779221,51.563602 C73.4072759,45.7234555 60.9603062,42.8033822 52.237013,42.8033822 C43.5137198,42.8033822 31.0667501,45.7234555 14.8961039,51.563602 L14.8961039,28.2380206 Z" fill="#8A1EA0"></path>
                            <path d="M18.9220779,30.4419074 C30.0742357,26.7720926 39.0857599,26.7720926 45.9566508,30.4419074 C56.262987,35.9466297 58.2388377,34.2849291 62.3200335,32.5977471 C67.1700457,30.5927333 77.598,29.8741201 93.6038961,30.4419074 L93.6038961,53.7674888 C77.4332499,47.9273423 64.9862802,45.007269 56.262987,45.007269 C47.5396938,45.007269 35.0927241,47.9273423 18.9220779,53.7674888 L18.9220779,30.4419074 Z" fill="#4F045F"></path>
                        </g>
                    </g>
                </g>
            </g>
        </g>
    </g>
</svg>