<?xml version="1.0" standalone="no"?>
<!DOCTYPE svg PUBLIC "-//W3C//DTD SVG 20010904//EN"
 "http://www.w3.org/TR/2001/REC-SVG-20010904/DTD/svg10.dtd">
<svg version="1.0" xmlns="http://www.w3.org/2000/svg"
 width="807.000000pt" height="807.000000pt" viewBox="0 0 807.000000 807.000000"
 preserveAspectRatio="xMidYMid meet">
<metadata>
Created by potrace 1.11, written by Peter Selinger 2001-2013
</metadata>
<g transform="translate(0.000000,807.000000) scale(0.100000,-0.100000)"
fill="#000000" stroke="none">
<path d="M4025 8040 c-97 -22 -567 -250 -1007 -489 -23 -13 -90 -48 -148 -79
-58 -30 -134 -72 -170 -92 -36 -20 -94 -53 -130 -72 -36 -19 -101 -55 -145
-80 -44 -25 -105 -59 -135 -76 -260 -141 -1031 -595 -1285 -756 -72 -45 -332
-220 -385 -258 -65 -47 -118 -104 -124 -135 -28 -128 -41 -261 -60 -603 -6
-101 -17 -427 -21 -630 -4 -190 -4 -1338 0 -1505 4 -182 16 -530 20 -590 1
-27 6 -106 10 -175 3 -69 8 -136 10 -150 2 -14 7 -59 10 -100 9 -100 32 -209
51 -238 41 -62 446 -327 904 -591 30 -18 62 -36 70 -41 31 -20 216 -127 230
-133 8 -4 31 -17 50 -28 35 -21 385 -218 495 -279 33 -18 80 -44 105 -58 25
-14 79 -44 120 -67 42 -24 107 -60 145 -80 39 -21 95 -51 125 -68 76 -41 162
-88 245 -132 39 -21 97 -52 130 -70 278 -149 760 -394 840 -425 32 -13 68 -24
80 -24 49 0 519 238 1103 558 56 31 104 56 106 56 1 0 52 28 112 61 60 34 132
74 159 89 80 43 498 277 640 358 72 41 148 84 170 97 129 71 535 309 675 394
268 164 426 267 512 336 49 38 60 53 72 97 21 75 37 247 51 553 27 571 27
2395 0 2810 -2 39 -7 126 -10 195 -3 69 -7 136 -9 150 -3 14 -7 54 -10 90 -9
93 -20 150 -35 179 -12 21 -155 131 -266 203 -173 112 -249 160 -385 242 -80
49 -156 96 -170 105 -14 8 -34 21 -45 27 -29 16 -71 41 -255 149 -91 54 -223
131 -295 172 -71 41 -137 78 -145 83 -32 19 -298 169 -345 195 -27 15 -79 45
-115 65 -280 161 -845 462 -1125 599 -288 142 -368 173 -420 161z"/>
</g>
</svg>
